<svg xmlns="http://www.w3.org/2000/svg" viewBox="0 0 64 64" width="64" height="64">
<defs><linearGradient id="fb" x1="0" y1="0" x2="0" y2="1"><stop offset="0" stop-color="#1a2224"/><stop offset="1" stop-color="#0a0e0f"/></linearGradient>
<clipPath id="fc"><polygon points="32,7 53.5,19.5 53.5,44.5 32,57 10.5,44.5 10.5,19.5"/></clipPath></defs>
<polygon points="32,3 57,17.5 57,46.5 32,61 7,46.5 7,17.5" fill="url(#fb)" stroke="#6f8790" stroke-width="2.5" stroke-linejoin="miter"/>
<polygon points="32,7 53.5,19.5 53.5,44.5 32,57 10.5,44.5 10.5,19.5" fill="none" stroke="#6f8790" stroke-width="1" stroke-dasharray="2 1.6" opacity=".55"/>
<g clip-path="url(#fc)"><circle cx="31" cy="32" r="14" fill="#b9c6c9"/><circle cx="38.0" cy="27.8" r="11.479999999999999" fill="#1a2224"/><polygon points="44.00,18.00 44.49,19.32 45.90,19.38 44.80,20.26 45.18,21.62 44.00,20.84 42.82,21.62 43.20,20.26 42.10,19.38 43.51,19.32" fill="#b9c6c9"/><polygon points="46.00,38.50 46.37,39.49 47.43,39.54 46.60,40.19 46.88,41.21 46.00,40.63 45.12,41.21 45.40,40.19 44.57,39.54 45.63,39.49" fill="#8a9a9e"/></g></svg>