<svg xmlns="http://www.w3.org/2000/svg" viewBox="0 0 64 64" width="64" height="64">
<defs><linearGradient id="ib" x1="0" y1="0" x2="0" y2="1"><stop offset="0" stop-color="#1c1514"/><stop offset="1" stop-color="#060404"/></linearGradient>
<clipPath id="ic"><polygon points="32,7 53.5,19.5 53.5,44.5 32,57 10.5,44.5 10.5,19.5"/></clipPath></defs>
<polygon points="32,3 57,17.5 57,46.5 32,61 7,46.5 7,17.5" fill="url(#ib)" stroke="#a33a2f" stroke-width="2.5" stroke-linejoin="miter"/>
<polygon points="32,7 53.5,19.5 53.5,44.5 32,57 10.5,44.5 10.5,19.5" fill="none" stroke="#a33a2f" stroke-width="1" stroke-dasharray="2 1.6" opacity=".55"/>
<g clip-path="url(#ic)"><ellipse cx="25.2" cy="52.8" rx="2" ry="4" fill="#5d6b3e" transform="rotate(-20 25.2 52.8)"/><ellipse cx="19.1" cy="49.3" rx="2" ry="4" fill="#5d6b3e" transform="rotate(-40 19.1 49.3)"/><ellipse cx="14.7" cy="44.0" rx="2" ry="4" fill="#5d6b3e" transform="rotate(-60 14.7 44.0)"/><ellipse cx="12.3" cy="37.5" rx="2" ry="4" fill="#5d6b3e" transform="rotate(-80 12.3 37.5)"/><ellipse cx="12.3" cy="30.5" rx="2" ry="4" fill="#5d6b3e" transform="rotate(-100 12.3 30.5)"/><ellipse cx="38.8" cy="52.8" rx="2" ry="4" fill="#5d6b3e" transform="rotate(20 38.8 52.8)"/><ellipse cx="44.9" cy="49.3" rx="2" ry="4" fill="#5d6b3e" transform="rotate(40 44.9 49.3)"/><ellipse cx="49.3" cy="44.0" rx="2" ry="4" fill="#5d6b3e" transform="rotate(60 49.3 44.0)"/><ellipse cx="51.7" cy="37.5" rx="2" ry="4" fill="#5d6b3e" transform="rotate(80 51.7 37.5)"/><ellipse cx="51.7" cy="30.5" rx="2" ry="4" fill="#5d6b3e" transform="rotate(100 51.7 30.5)"/><polygon points="20.50,30.70 20.50,23.80 25.10,18.62 38.90,18.62 43.50,23.80 43.50,30.70 41.20,35.30 41.20,39.90 37.75,39.90 37.75,44.50 26.25,44.50 26.25,39.90 22.80,39.90 22.80,35.30" fill="#c9c4b8"/><polygon points="23.38,27.82 29.70,28.98 29.12,34.15 24.52,34.15" fill="#0e0b0a"/><polygon points="40.62,27.82 34.30,28.98 34.88,34.15 39.48,34.15" fill="#0e0b0a"/><polygon points="32.00,35.30 30.16,38.29 33.84,38.29" fill="#0e0b0a"/><line x1="29.12" y1="39.90" x2="29.12" y2="44.50" stroke="#0e0b0a" stroke-width="1.26"/><line x1="32.00" y1="39.90" x2="32.00" y2="44.50" stroke="#0e0b0a" stroke-width="1.26"/><line x1="34.88" y1="39.90" x2="34.88" y2="44.50" stroke="#0e0b0a" stroke-width="1.26"/><rect x="19.35" y="22.65" width="25.299999999999997" height="3.4499999999999997" fill="#2b3027"/><rect x="29.7" y="20.35" width="4.6" height="6.8999999999999995" fill="#2b3027"/><circle cx="22.34" cy="30.93" r="3.9099999999999997" fill="#2b3027"/><circle cx="22.34" cy="30.93" r="2.76" fill="#8fd48a"/><circle cx="27.86" cy="31.275" r="3.9099999999999997" fill="#2b3027"/><circle cx="27.86" cy="31.275" r="2.76" fill="#8fd48a"/><circle cx="36.14" cy="31.275" r="3.9099999999999997" fill="#2b3027"/><circle cx="36.14" cy="31.275" r="2.76" fill="#8fd48a"/><circle cx="41.66" cy="30.93" r="3.9099999999999997" fill="#2b3027"/><circle cx="41.66" cy="30.93" r="2.76" fill="#8fd48a"/></g></svg>